<svg width="27" height="22" viewBox="0 0 27 22" fill="none" xmlns="http://www.w3.org/2000/svg">
<path d="M11.9808 16.416C11.9808 15.0936 11.616 13.9688 10.8864 13.0416C9.77677 11.6432 7.63357 11.476 6.38717 11.7496C5.87037 8.816 8.36317 5.0768 11.5856 3.4656L9.10797 0C4.24397 2.3104 -0.528826 7.6304 0.291974 14.3336C0.808774 18.5744 3.25597 21.3712 6.72157 21.3712C8.24157 21.3712 9.50317 20.9304 10.4912 20.0336C11.4944 19.1368 11.9808 17.936 11.9808 16.416ZM26.3144 16.416C26.3144 15.0936 25.9496 13.9688 25.22 13.0416C24.1104 11.6432 21.9672 11.476 20.7208 11.7496C20.204 8.816 22.6968 5.0768 25.9192 3.4656L23.4416 0C18.5776 2.3104 13.8048 7.6304 14.6256 14.3336C15.1424 18.5744 17.5896 21.3712 21.0552 21.3712C22.5752 21.3712 23.8368 20.9304 24.8248 20.0336C25.828 19.1368 26.3144 17.936 26.3144 16.416Z" fill="black"/>
</svg>
